<svg xmlns="http://www.w3.org/2000/svg" viewBox="0 0 297.93 279.51"><defs><style>.cls-1,.cls-2{fill:#fff;stroke:#fff;stroke-miterlimit:10;}.cls-2{stroke-width:0.25px;}</style></defs><title>logoW</title><g id="Capa_2" data-name="Capa 2"><g id="Capa_1-2" data-name="Capa 1"><path class="cls-1" d="M90,263.19H60.24q-12.3,0-12.3-10.55V231.55q0-10.55,12.3-10.55l43.91,0V268.5q0,10.51-12.3,10.51H55V268.5H88.33a1.6,1.6,0,0,0,1.76-1.83ZM63.72,231.58A1.54,1.54,0,0,0,62,233.34v17.54a1.54,1.54,0,0,0,1.72,1.76l24.68,0a1.55,1.55,0,0,0,1.76-1.76l0-19.3Z"/><path class="cls-1" d="M111.21,221h43.95q12.3,0,12.3,10.41v31.78H123.52q-12.3,0-12.3-10.55v-5.31q0-10.51,12.3-10.51h29.92l0-3.66a1.54,1.54,0,0,0-1.72-1.76H111.21ZM127,247.33q-1.72,0-1.72,1.83v1.72a1.55,1.55,0,0,0,1.76,1.76h26.4l0-5.27Z"/><path class="cls-1" d="M218.47,221q12.27,0,12.27,10.55l0,21.09q0,10.55-12.3,10.55H188.56V279H174.49V221ZM215,252.64a1.55,1.55,0,0,0,1.76-1.76V233.34a1.55,1.55,0,0,0-1.76-1.76l-26.4,0v21.06Z"/><path class="cls-1" d="M253.48,247.37q-12.3,0-12.3-10.55v-3.55q0-12.3,12.3-12.3h43.95v10.58H257a1.54,1.54,0,0,0-1.72,1.76v1.76a1.54,1.54,0,0,0,1.72,1.76h28.16q12.3,0,12.3,10.55v3.52q0,12.3-12.3,12.3H241.18V252.61h40.43a1.55,1.55,0,0,0,1.76-1.76v-1.72a1.55,1.55,0,0,0-1.76-1.76Z"/><path class="cls-2" d="M24.73,239.41l-7.26-10.65S11.17,179.36,0,178.39c0,0,16.95,3.87,19.86,18.4,0,0-1.45-49.88-4.84-55.21,0,0,10.17,17.43,12.11,17.43l-3.87-30.51,27.6-38.26s1.45,27.8,3.39,31.09c0,0,6.3-29.64,2.91-33.51,0,0,17.92-15,17.43-17.92,0,0,2.44,19.86,0,27.12,0,0,11.13-27.6,9.68-30,0,0,41.65-27.6,41.65-36.32,0,0,.48,26.64-4.36,36.8,0,0,10.17-23.73,12.59-23.73,0,0,49.88-16.08,63.44-32,0,0-38.26,56.18-58.11,72.64S44.1,146.43,24.73,239.41Z"/><path class="cls-2" d="M164.84,56.48c-5.21,5.11-13,12.7-22.43,21.85-38.06,36.82-43,39.07-57.14,54.72C75.21,144.17,60,161.19,46,186.8a248.4,248.4,0,0,0-21.31,52.61L36.35,258s-5.81-25.18,0-35.84,70.22-25.67,76-43.58l-13.56,4.84s-31,6.3-33.9,2.91l33.9-10.17A266,266,0,0,0,124,165.55c7-3.39,13.44-6.88,19.3-10.33.84-.61,2.09-1.56,3.51-2.8a53.55,53.55,0,0,0,10.47-12.65c4.1-6.51,10-15.65,17.13-27.06-10.83,3.52-22.43,6.93-34.78,10.08s-24.27,5.74-35.5,7.84c0,0,68.34-22.28,68.34-24.7S201,58,201,52.66c0,0-31,21.31-33.42,20.82a107,107,0,0,0,28.09-32.93A107,107,0,0,0,208.27.36L197.61,11.8Z"/><path class="cls-1" d="M241.18,222.36h-8.79l-5.27-10.55V201.27h14.06v10.55H235.9Z"/></g></g></svg>